<mxfile host="app.diagrams.net" modified="2023-11-05T20:59:47.248Z" agent="Mozilla/5.0 (Windows NT 10.0; Win64; x64) AppleWebKit/537.36 (KHTML, like Gecko) Chrome/118.0.0.0 Safari/537.36" etag="UWr7ZiZK1ZLL65UAN1zD" version="22.0.8" type="device">
  <diagram name="Página-1" id="3POAbongP9ph7iVrVAuK">
    <mxGraphModel dx="1050" dy="1718" grid="1" gridSize="10" guides="1" tooltips="1" connect="1" arrows="1" fold="1" page="1" pageScale="1" pageWidth="827" pageHeight="1169" math="0" shadow="0">
      <root>
        <mxCell id="0" />
        <mxCell id="1" parent="0" />
        <mxCell id="1jxXREwmzv1htUEnIiUL-1" value="Apicultor" style="shape=umlActor;verticalLabelPosition=bottom;verticalAlign=top;html=1;outlineConnect=0;" vertex="1" parent="1">
          <mxGeometry x="60" y="227.5" width="30" height="60" as="geometry" />
        </mxCell>
        <mxCell id="1jxXREwmzv1htUEnIiUL-3" value="" style="whiteSpace=wrap;html=1;aspect=fixed;" vertex="1" parent="1">
          <mxGeometry x="180" y="-55" width="875" height="875" as="geometry" />
        </mxCell>
        <mxCell id="1jxXREwmzv1htUEnIiUL-4" value="APP" style="text;html=1;strokeColor=none;fillColor=none;align=center;verticalAlign=middle;whiteSpace=wrap;rounded=0;" vertex="1" parent="1">
          <mxGeometry x="538" y="-85" width="60" height="30" as="geometry" />
        </mxCell>
        <mxCell id="1jxXREwmzv1htUEnIiUL-5" value="Realizar Login" style="ellipse;whiteSpace=wrap;html=1;" vertex="1" parent="1">
          <mxGeometry x="210" y="-40" width="70" height="50" as="geometry" />
        </mxCell>
        <mxCell id="1jxXREwmzv1htUEnIiUL-6" value="Listar colmeais" style="ellipse;whiteSpace=wrap;html=1;" vertex="1" parent="1">
          <mxGeometry x="210" y="30" width="70" height="50" as="geometry" />
        </mxCell>
        <mxCell id="1jxXREwmzv1htUEnIiUL-7" value="Gerir Colmeia" style="ellipse;whiteSpace=wrap;html=1;" vertex="1" parent="1">
          <mxGeometry x="300" y="150" width="70" height="50" as="geometry" />
        </mxCell>
        <mxCell id="1jxXREwmzv1htUEnIiUL-16" style="edgeStyle=orthogonalEdgeStyle;rounded=0;orthogonalLoop=1;jettySize=auto;html=1;exitX=0;exitY=1;exitDx=0;exitDy=0;" edge="1" parent="1" source="1jxXREwmzv1htUEnIiUL-8" target="1jxXREwmzv1htUEnIiUL-7">
          <mxGeometry relative="1" as="geometry" />
        </mxCell>
        <mxCell id="1jxXREwmzv1htUEnIiUL-8" value="Inserir colmeia" style="ellipse;whiteSpace=wrap;html=1;" vertex="1" parent="1">
          <mxGeometry x="419" y="100" width="60" height="50" as="geometry" />
        </mxCell>
        <mxCell id="1jxXREwmzv1htUEnIiUL-15" style="edgeStyle=orthogonalEdgeStyle;rounded=0;orthogonalLoop=1;jettySize=auto;html=1;exitX=0;exitY=0.5;exitDx=0;exitDy=0;" edge="1" parent="1" source="1jxXREwmzv1htUEnIiUL-9" target="1jxXREwmzv1htUEnIiUL-7">
          <mxGeometry relative="1" as="geometry" />
        </mxCell>
        <mxCell id="1jxXREwmzv1htUEnIiUL-9" value="Reportar doença" style="ellipse;whiteSpace=wrap;html=1;" vertex="1" parent="1">
          <mxGeometry x="410" y="180" width="74" height="50" as="geometry" />
        </mxCell>
        <mxCell id="1jxXREwmzv1htUEnIiUL-10" value="Adicionar atividade" style="ellipse;whiteSpace=wrap;html=1;" vertex="1" parent="1">
          <mxGeometry x="414" y="40" width="70" height="50" as="geometry" />
        </mxCell>
        <mxCell id="1jxXREwmzv1htUEnIiUL-11" value="Ver histórico de colmeia" style="ellipse;whiteSpace=wrap;html=1;" vertex="1" parent="1">
          <mxGeometry x="410" y="250" width="70" height="50" as="geometry" />
        </mxCell>
        <mxCell id="1jxXREwmzv1htUEnIiUL-18" style="edgeStyle=orthogonalEdgeStyle;rounded=0;orthogonalLoop=1;jettySize=auto;html=1;exitX=0;exitY=1;exitDx=0;exitDy=0;" edge="1" parent="1" source="1jxXREwmzv1htUEnIiUL-12" target="1jxXREwmzv1htUEnIiUL-7">
          <mxGeometry relative="1" as="geometry" />
        </mxCell>
        <mxCell id="1jxXREwmzv1htUEnIiUL-12" value="Fotografar colmeia" style="ellipse;whiteSpace=wrap;html=1;" vertex="1" parent="1">
          <mxGeometry x="410" y="-20" width="70" height="50" as="geometry" />
        </mxCell>
        <mxCell id="1jxXREwmzv1htUEnIiUL-13" value="Maneio sanitário" style="ellipse;whiteSpace=wrap;html=1;" vertex="1" parent="1">
          <mxGeometry x="415" y="310" width="60" height="45" as="geometry" />
        </mxCell>
        <mxCell id="1jxXREwmzv1htUEnIiUL-17" style="edgeStyle=orthogonalEdgeStyle;rounded=0;orthogonalLoop=1;jettySize=auto;html=1;exitX=0;exitY=1;exitDx=0;exitDy=0;entryX=0.943;entryY=0.28;entryDx=0;entryDy=0;entryPerimeter=0;" edge="1" parent="1" source="1jxXREwmzv1htUEnIiUL-10" target="1jxXREwmzv1htUEnIiUL-7">
          <mxGeometry relative="1" as="geometry" />
        </mxCell>
        <mxCell id="1jxXREwmzv1htUEnIiUL-19" style="edgeStyle=orthogonalEdgeStyle;rounded=0;orthogonalLoop=1;jettySize=auto;html=1;exitX=0;exitY=0.5;exitDx=0;exitDy=0;entryX=0.931;entryY=0.696;entryDx=0;entryDy=0;entryPerimeter=0;" edge="1" parent="1" source="1jxXREwmzv1htUEnIiUL-11" target="1jxXREwmzv1htUEnIiUL-7">
          <mxGeometry relative="1" as="geometry" />
        </mxCell>
        <mxCell id="1jxXREwmzv1htUEnIiUL-20" style="edgeStyle=orthogonalEdgeStyle;rounded=0;orthogonalLoop=1;jettySize=auto;html=1;exitX=0;exitY=0.5;exitDx=0;exitDy=0;entryX=0.726;entryY=0.984;entryDx=0;entryDy=0;entryPerimeter=0;" edge="1" parent="1" source="1jxXREwmzv1htUEnIiUL-13" target="1jxXREwmzv1htUEnIiUL-7">
          <mxGeometry relative="1" as="geometry" />
        </mxCell>
        <mxCell id="1jxXREwmzv1htUEnIiUL-24" value="" style="endArrow=none;html=1;rounded=0;entryX=0;entryY=1;entryDx=0;entryDy=0;" edge="1" parent="1" source="1jxXREwmzv1htUEnIiUL-1" target="1jxXREwmzv1htUEnIiUL-5">
          <mxGeometry width="50" height="50" relative="1" as="geometry">
            <mxPoint x="70" y="100" as="sourcePoint" />
            <mxPoint x="120" y="50" as="targetPoint" />
          </mxGeometry>
        </mxCell>
        <mxCell id="1jxXREwmzv1htUEnIiUL-25" value="" style="endArrow=none;html=1;rounded=0;entryX=0.286;entryY=0.952;entryDx=0;entryDy=0;entryPerimeter=0;" edge="1" parent="1" source="1jxXREwmzv1htUEnIiUL-1" target="1jxXREwmzv1htUEnIiUL-6">
          <mxGeometry width="50" height="50" relative="1" as="geometry">
            <mxPoint x="159" y="170" as="sourcePoint" />
            <mxPoint x="230" y="13" as="targetPoint" />
            <Array as="points">
              <mxPoint x="200" y="130" />
            </Array>
          </mxGeometry>
        </mxCell>
        <mxCell id="1jxXREwmzv1htUEnIiUL-26" value="" style="endArrow=none;html=1;rounded=0;entryX=0;entryY=0.5;entryDx=0;entryDy=0;" edge="1" parent="1" source="1jxXREwmzv1htUEnIiUL-1" target="1jxXREwmzv1htUEnIiUL-7">
          <mxGeometry width="50" height="50" relative="1" as="geometry">
            <mxPoint x="170" y="195" as="sourcePoint" />
            <mxPoint x="241" y="38" as="targetPoint" />
          </mxGeometry>
        </mxCell>
        <mxCell id="1jxXREwmzv1htUEnIiUL-35" style="edgeStyle=orthogonalEdgeStyle;rounded=0;orthogonalLoop=1;jettySize=auto;html=1;exitX=0;exitY=0.5;exitDx=0;exitDy=0;" edge="1" parent="1" source="1jxXREwmzv1htUEnIiUL-27">
          <mxGeometry relative="1" as="geometry">
            <mxPoint x="480" y="50" as="targetPoint" />
          </mxGeometry>
        </mxCell>
        <mxCell id="1jxXREwmzv1htUEnIiUL-27" value="Troca de alças" style="ellipse;whiteSpace=wrap;html=1;" vertex="1" parent="1">
          <mxGeometry x="620" width="70" height="50" as="geometry" />
        </mxCell>
        <mxCell id="1jxXREwmzv1htUEnIiUL-36" style="edgeStyle=orthogonalEdgeStyle;rounded=0;orthogonalLoop=1;jettySize=auto;html=1;exitX=0;exitY=0.5;exitDx=0;exitDy=0;entryX=1;entryY=0.5;entryDx=0;entryDy=0;" edge="1" parent="1" source="1jxXREwmzv1htUEnIiUL-28" target="1jxXREwmzv1htUEnIiUL-10">
          <mxGeometry relative="1" as="geometry" />
        </mxCell>
        <mxCell id="1jxXREwmzv1htUEnIiUL-28" value="Divisão colmeia" style="ellipse;whiteSpace=wrap;html=1;" vertex="1" parent="1">
          <mxGeometry x="620" y="237.5" width="70" height="50" as="geometry" />
        </mxCell>
        <mxCell id="1jxXREwmzv1htUEnIiUL-29" value="manutenção da colmeia" style="ellipse;whiteSpace=wrap;html=1;" vertex="1" parent="1">
          <mxGeometry x="615" y="175" width="80" height="60" as="geometry" />
        </mxCell>
        <mxCell id="1jxXREwmzv1htUEnIiUL-30" value="recolha de cera" style="ellipse;whiteSpace=wrap;html=1;" vertex="1" parent="1">
          <mxGeometry x="620" y="60" width="70" height="50" as="geometry" />
        </mxCell>
        <mxCell id="1jxXREwmzv1htUEnIiUL-33" style="edgeStyle=orthogonalEdgeStyle;rounded=0;orthogonalLoop=1;jettySize=auto;html=1;exitX=0;exitY=0.5;exitDx=0;exitDy=0;entryX=1;entryY=0.5;entryDx=0;entryDy=0;" edge="1" parent="1" source="1jxXREwmzv1htUEnIiUL-31" target="1jxXREwmzv1htUEnIiUL-10">
          <mxGeometry relative="1" as="geometry" />
        </mxCell>
        <mxCell id="1jxXREwmzv1htUEnIiUL-31" value="recolha de mel" style="ellipse;whiteSpace=wrap;html=1;" vertex="1" parent="1">
          <mxGeometry x="620" y="120" width="70" height="50" as="geometry" />
        </mxCell>
        <mxCell id="1jxXREwmzv1htUEnIiUL-32" style="edgeStyle=orthogonalEdgeStyle;rounded=0;orthogonalLoop=1;jettySize=auto;html=1;exitX=0;exitY=0.5;exitDx=0;exitDy=0;entryX=0.971;entryY=0.736;entryDx=0;entryDy=0;entryPerimeter=0;" edge="1" parent="1">
          <mxGeometry relative="1" as="geometry">
            <mxPoint x="617.03" y="200" as="sourcePoint" />
            <mxPoint x="484" y="71.79999999999995" as="targetPoint" />
            <Array as="points">
              <mxPoint x="617" y="150" />
              <mxPoint x="485" y="150" />
            </Array>
          </mxGeometry>
        </mxCell>
        <mxCell id="1jxXREwmzv1htUEnIiUL-34" style="edgeStyle=orthogonalEdgeStyle;rounded=0;orthogonalLoop=1;jettySize=auto;html=1;exitX=0;exitY=0.5;exitDx=0;exitDy=0;entryX=0.983;entryY=0.368;entryDx=0;entryDy=0;entryPerimeter=0;" edge="1" parent="1" source="1jxXREwmzv1htUEnIiUL-30" target="1jxXREwmzv1htUEnIiUL-10">
          <mxGeometry relative="1" as="geometry" />
        </mxCell>
        <mxCell id="1jxXREwmzv1htUEnIiUL-37" value="Caderno de campo" style="ellipse;whiteSpace=wrap;html=1;" vertex="1" parent="1">
          <mxGeometry x="245" y="287.5" width="70" height="50" as="geometry" />
        </mxCell>
        <mxCell id="1jxXREwmzv1htUEnIiUL-38" value="Registo de Produtos" style="ellipse;whiteSpace=wrap;html=1;" vertex="1" parent="1">
          <mxGeometry x="250" y="340" width="70" height="50" as="geometry" />
        </mxCell>
        <mxCell id="1jxXREwmzv1htUEnIiUL-39" value="Lista de tarefas" style="ellipse;whiteSpace=wrap;html=1;" vertex="1" parent="1">
          <mxGeometry x="240" y="227.5" width="75" height="50" as="geometry" />
        </mxCell>
        <mxCell id="1jxXREwmzv1htUEnIiUL-40" value="Câmaras de campo" style="ellipse;whiteSpace=wrap;html=1;" vertex="1" parent="1">
          <mxGeometry x="250" y="390" width="80" height="60" as="geometry" />
        </mxCell>
        <mxCell id="1jxXREwmzv1htUEnIiUL-43" value="" style="endArrow=none;html=1;rounded=0;" edge="1" parent="1" source="1jxXREwmzv1htUEnIiUL-1" target="1jxXREwmzv1htUEnIiUL-40">
          <mxGeometry width="50" height="50" relative="1" as="geometry">
            <mxPoint x="90" y="450" as="sourcePoint" />
            <mxPoint x="140" y="400" as="targetPoint" />
          </mxGeometry>
        </mxCell>
        <mxCell id="1jxXREwmzv1htUEnIiUL-44" value="" style="endArrow=none;html=1;rounded=0;entryX=0.099;entryY=0.728;entryDx=0;entryDy=0;entryPerimeter=0;exitX=1;exitY=1;exitDx=0;exitDy=0;exitPerimeter=0;" edge="1" parent="1" source="1jxXREwmzv1htUEnIiUL-1" target="1jxXREwmzv1htUEnIiUL-39">
          <mxGeometry width="50" height="50" relative="1" as="geometry">
            <mxPoint x="70" y="380" as="sourcePoint" />
            <mxPoint x="120" y="330" as="targetPoint" />
          </mxGeometry>
        </mxCell>
        <mxCell id="1jxXREwmzv1htUEnIiUL-45" value="" style="endArrow=none;html=1;rounded=0;" edge="1" parent="1" source="1jxXREwmzv1htUEnIiUL-1" target="1jxXREwmzv1htUEnIiUL-37">
          <mxGeometry width="50" height="50" relative="1" as="geometry">
            <mxPoint x="80" y="390" as="sourcePoint" />
            <mxPoint x="130" y="340" as="targetPoint" />
          </mxGeometry>
        </mxCell>
        <mxCell id="1jxXREwmzv1htUEnIiUL-46" value="" style="endArrow=none;html=1;rounded=0;entryX=0;entryY=0.5;entryDx=0;entryDy=0;" edge="1" parent="1" source="1jxXREwmzv1htUEnIiUL-1" target="1jxXREwmzv1htUEnIiUL-38">
          <mxGeometry width="50" height="50" relative="1" as="geometry">
            <mxPoint x="80" y="290" as="sourcePoint" />
            <mxPoint x="140" y="350" as="targetPoint" />
          </mxGeometry>
        </mxCell>
        <mxCell id="1jxXREwmzv1htUEnIiUL-47" value="Realizar Pedidos" style="ellipse;whiteSpace=wrap;html=1;" vertex="1" parent="1">
          <mxGeometry x="250" y="540" width="80" height="60" as="geometry" />
        </mxCell>
        <mxCell id="1jxXREwmzv1htUEnIiUL-48" value="Ver Histórico de atividades" style="ellipse;whiteSpace=wrap;html=1;" vertex="1" parent="1">
          <mxGeometry x="245" y="620" width="80" height="60" as="geometry" />
        </mxCell>
        <mxCell id="1jxXREwmzv1htUEnIiUL-49" value="Lista de tarefas" style="ellipse;whiteSpace=wrap;html=1;" vertex="1" parent="1">
          <mxGeometry x="250" y="470" width="80" height="60" as="geometry" />
        </mxCell>
        <mxCell id="1jxXREwmzv1htUEnIiUL-51" value="" style="endArrow=none;html=1;rounded=0;entryX=0;entryY=0.5;entryDx=0;entryDy=0;" edge="1" parent="1" source="1jxXREwmzv1htUEnIiUL-1" target="1jxXREwmzv1htUEnIiUL-49">
          <mxGeometry width="50" height="50" relative="1" as="geometry">
            <mxPoint x="100" y="470" as="sourcePoint" />
            <mxPoint x="150" y="420" as="targetPoint" />
          </mxGeometry>
        </mxCell>
        <mxCell id="1jxXREwmzv1htUEnIiUL-54" value="" style="endArrow=none;html=1;rounded=0;entryX=0;entryY=0.5;entryDx=0;entryDy=0;" edge="1" parent="1" source="1jxXREwmzv1htUEnIiUL-1" target="1jxXREwmzv1htUEnIiUL-47">
          <mxGeometry width="50" height="50" relative="1" as="geometry">
            <mxPoint x="60" y="520" as="sourcePoint" />
            <mxPoint x="110" y="470" as="targetPoint" />
          </mxGeometry>
        </mxCell>
        <mxCell id="1jxXREwmzv1htUEnIiUL-55" value="" style="endArrow=none;html=1;rounded=0;entryX=0;entryY=0.5;entryDx=0;entryDy=0;" edge="1" parent="1" source="1jxXREwmzv1htUEnIiUL-1" target="1jxXREwmzv1htUEnIiUL-48">
          <mxGeometry width="50" height="50" relative="1" as="geometry">
            <mxPoint x="70" y="530" as="sourcePoint" />
            <mxPoint x="120" y="480" as="targetPoint" />
          </mxGeometry>
        </mxCell>
        <mxCell id="1jxXREwmzv1htUEnIiUL-57" value="Transumância" style="ellipse;whiteSpace=wrap;html=1;" vertex="1" parent="1">
          <mxGeometry x="488" y="430" width="110" height="80" as="geometry" />
        </mxCell>
        <mxCell id="1jxXREwmzv1htUEnIiUL-59" style="edgeStyle=orthogonalEdgeStyle;rounded=0;orthogonalLoop=1;jettySize=auto;html=1;exitX=0;exitY=0.5;exitDx=0;exitDy=0;entryX=1;entryY=0.5;entryDx=0;entryDy=0;" edge="1" parent="1" source="1jxXREwmzv1htUEnIiUL-58" target="1jxXREwmzv1htUEnIiUL-47">
          <mxGeometry relative="1" as="geometry" />
        </mxCell>
        <mxCell id="1jxXREwmzv1htUEnIiUL-58" value="Pedido de autorização de colocação de colmeias em zonas controladas" style="ellipse;whiteSpace=wrap;html=1;" vertex="1" parent="1">
          <mxGeometry x="490" y="520" width="136" height="115" as="geometry" />
        </mxCell>
        <mxCell id="1jxXREwmzv1htUEnIiUL-60" style="edgeStyle=orthogonalEdgeStyle;rounded=0;orthogonalLoop=1;jettySize=auto;html=1;exitX=0;exitY=0.5;exitDx=0;exitDy=0;entryX=1.03;entryY=0.347;entryDx=0;entryDy=0;entryPerimeter=0;" edge="1" parent="1" source="1jxXREwmzv1htUEnIiUL-57" target="1jxXREwmzv1htUEnIiUL-47">
          <mxGeometry relative="1" as="geometry">
            <Array as="points">
              <mxPoint x="475" y="540" />
              <mxPoint x="332" y="540" />
            </Array>
          </mxGeometry>
        </mxCell>
      </root>
    </mxGraphModel>
  </diagram>
</mxfile>
